<svg xmlns="http://www.w3.org/2000/svg" viewBox="0 0 512 512" role="img" aria-labelledby="title desc">
  <title>MIAWK icon</title>
  <desc>Gradient square icon for MIAWK.</desc>
  <defs>
    <linearGradient id="bg" x1="0%" y1="0%" x2="100%" y2="100%">
      <stop offset="0%" stop-color="#0f172a"/>
      <stop offset="55%" stop-color="#155e75"/>
      <stop offset="100%" stop-color="#65a30d"/>
    </linearGradient>
    <linearGradient id="shine" x1="0%" y1="0%" x2="100%" y2="0%">
      <stop offset="0%" stop-color="#f8fafc" stop-opacity="0.96"/>
      <stop offset="100%" stop-color="#d9f99d" stop-opacity="0.94"/>
    </linearGradient>
  </defs>
  <rect x="20" y="20" width="472" height="472" rx="108" fill="url(#bg)"/>
  <path d="M96 138c54-58 128-90 210-90 46 0 89 10 127 29-35 4-71 18-104 42-62 44-102 113-112 189-8 58 2 115 26 163-49-16-93-45-126-86-43-53-63-121-55-189 6-20 17-39 34-58z" fill="#ffffff" fill-opacity="0.08"/>
  <path d="M146 363V149h99c28 0 49 6 64 18 15 12 22 29 22 50 0 12-3 23-8 32-6 9-14 16-25 20 15 4 27 12 35 23 8 11 12 24 12 40 0 24-8 43-25 57-17 14-40 21-70 21zm54-128h38c13 0 23-3 29-8 6-5 10-12 10-22 0-11-3-19-10-24-6-5-16-7-30-7h-37zm0 85h44c14 0 25-3 32-9 7-6 11-15 11-27s-4-21-11-28c-7-7-18-10-32-10h-44z" fill="url(#shine)"/>
  <path d="M305 363l51-214h58l51 214h-54l-9-43h-52l-9 43zm54-86h36l-18-87z" fill="#f8fafc" fill-opacity="0.96"/>
  <path d="M143 391h226" stroke="#e2e8f0" stroke-opacity="0.3" stroke-width="12" stroke-linecap="round"/>
</svg>
